<svg xmlns="http://www.w3.org/2000/svg" viewBox="0 0 300 200" role="img" aria-label="United States flag">
  <rect width="300" height="200" fill="#fff"/>
  <g fill="#b22234">
    <rect width="300" height="15.385"/><rect y="30.769" width="300" height="15.385"/><rect y="61.538" width="300" height="15.385"/><rect y="92.307" width="300" height="15.385"/><rect y="123.076" width="300" height="15.385"/><rect y="153.845" width="300" height="15.385"/><rect y="184.615" width="300" height="15.385"/>
  </g>
  <rect width="120" height="107.692" fill="#3c3b6e"/>
  <g fill="#fff">
    <g id="r6"><circle cx="10" cy="10" r="2.2"/><circle cx="30" cy="10" r="2.2"/><circle cx="50" cy="10" r="2.2"/><circle cx="70" cy="10" r="2.2"/><circle cx="90" cy="10" r="2.2"/><circle cx="110" cy="10" r="2.2"/></g>
    <g id="r5"><circle cx="20" cy="20" r="2.2"/><circle cx="40" cy="20" r="2.2"/><circle cx="60" cy="20" r="2.2"/><circle cx="80" cy="20" r="2.2"/><circle cx="100" cy="20" r="2.2"/></g>
    <use href="#r6" y="20"/><use href="#r5" y="20"/><use href="#r6" y="40"/><use href="#r5" y="40"/><use href="#r6" y="60"/><use href="#r5" y="60"/><use href="#r6" y="80"/><use href="#r5" y="80"/>
  </g>
</svg>
